<svg width="40" height="40" viewBox="0 0 40 40" fill="none" xmlns="http://www.w3.org/2000/svg">
<g id="Group 1">
<g id="Group">
<path id="Vector" opacity="0.2" d="M35.1821 33.4778C35.1821 33.4778 37.5117 34.5438 39.6762 36.4021C41.7763 38.2046 33.3237 39.8593 24.0395 39.6185C21.956 39.5643 15.914 39.0272 12.8272 35.5483L0.163818 20.499L26.4155 24.0996L35.1821 33.4778Z" fill="#291F3D"/>
<g id="Group_2">
<path id="Vector_2" d="M0.152074 20.0015C0.168968 20.0903 0.209252 20.1721 0.27033 20.2388C1.25667 21.3096 9.94788 30.713 14.2493 33.918C17.2932 36.1861 22.8799 36.8259 26.1932 36.7904C32.3625 36.7241 39.674 35.97 39.8213 29.5737C39.9621 23.4517 36.0189 6.34997 33.5741 2.6485C32.0328 0.314993 20.9847 -0.287121 15.4184 1.09557C14.9437 1.21339 13.3011 1.72237 12.1259 2.93959C9.97214 5.17131 7.93578 7.39522 5.96831 9.54593C4.02032 11.675 2.1594 13.7516 0.395951 15.7693C0.250405 15.9361 0.157272 16.1414 0.12825 16.3606C-0.0263935 17.5172 -0.0606144 18.8709 0.152507 20.0019L0.152074 20.0015Z" fill="#E53C4A"/>
<path id="Vector_3" d="M26.1956 36.7904C32.3648 36.7241 39.6764 35.97 39.8237 29.5737C39.9645 23.4517 36.0213 6.34997 33.5764 2.6485C32.0352 0.314993 20.9871 -0.287121 15.4208 1.09557C15.0452 1.1887 13.9393 1.52701 12.9118 2.26644C12.9066 2.27034 12.9019 2.2738 12.8967 2.27727C12.8854 2.2855 12.8742 2.29373 12.8625 2.30196C12.3743 11.6273 12.7342 21.0272 13.938 30.2876C14.2963 33.043 16.311 35.2934 19.0066 35.9678H19.0079C21.5389 36.6011 24.2562 36.8116 26.1951 36.7908L26.1956 36.7904Z" fill="#C4293E"/>
<path id="Vector_4" d="M33.576 2.6485C32.0348 0.314991 20.9866 -0.287119 15.4203 1.09557C15.0565 1.1861 14.0069 1.50622 13.0076 2.19843C13.0621 2.1785 14.6822 1.60845 15.3147 2.95388C15.6712 3.71194 15.899 4.98893 15.899 4.98893C16.8598 10.8892 18.2338 17.6675 19.3765 22.8032C20.0111 25.6557 20.6462 28.6346 22.5019 30.8923C24.3251 33.1106 27.1849 34.3386 30.056 34.4006C31.5717 34.4335 35.7315 34.5257 39.2597 32.1424C39.2701 32.1199 39.2852 32.0995 39.3043 32.0814C39.6192 31.3606 39.8016 30.5302 39.8237 29.5733C39.9645 23.4512 36.0208 6.34997 33.576 2.6485Z" fill="#291F3D"/>
<path id="Vector_5" d="M38.9351 21.3933C38.0679 16.4573 36.6917 10.7875 35.3714 6.84692C28.7525 6.44623 23.5951 6.36609 17.1135 7.07476C17.8231 11.1851 18.6877 15.5637 19.5077 19.4284C19.8442 21.0147 21.2165 22.1726 22.8375 22.2289C28.5926 22.4295 34.2022 22.1609 38.9351 21.3929V21.3933Z" fill="#463861"/>
<path id="Vector_6" d="M32.888 10.0644L21.5748 10.1978C21.4626 10.1991 21.3682 10.1142 21.3574 10.0024L21.1313 7.66285C21.1191 7.53593 21.2187 7.4259 21.3465 7.4259H32.6727C32.7841 7.4259 32.8772 7.51037 32.888 7.62126L33.1016 9.82743C33.1137 9.95348 33.0154 10.0626 32.8889 10.0644H32.888Z" fill="#FFBB00"/>
<path id="Vector_7" d="M0.0560149 17.0157L12.6492 7.92419C12.7549 14.6557 13.1023 20.9835 13.7478 26.814L0.0711776 19.464C-0.0119918 18.7172 -0.0288871 17.8292 0.0560149 17.0152V17.0157Z" fill="#291F3D"/>
<path id="Vector_8" d="M13.7469 26.8148C15.1335 27.4451 16.5439 27.8783 17.9769 28.1217C18.55 28.2192 19.0472 27.721 18.9428 27.1488L15.3453 7.38786C15.2864 7.06515 14.9546 6.87195 14.6436 6.97721C13.9921 7.19856 13.3272 7.51305 12.648 7.92456C12.648 7.92456 12.5795 17.0113 13.7465 26.8144L13.7469 26.8148Z" fill="#32294C"/>
<path id="Vector_9" d="M35.3691 6.84641C33.2587 6.71862 31.2964 6.62332 29.3926 6.57611C29.2926 5.39311 29.1951 4.18975 29.0998 2.9604C28.9499 0.847813 30.1563 1.04101 30.7974 1.20778C30.8386 1.21861 30.8776 1.22901 30.9135 1.23897C30.9187 1.24027 30.9235 1.24157 30.9287 1.2433C32.2382 1.60413 33.195 2.0737 33.5749 2.64895C34.1194 3.47328 34.738 4.9621 35.3691 6.84641Z" fill="#453A6B"/>
<path id="Vector_10" d="M32.89 10.0639L29.7062 10.1016C29.6247 9.21924 29.545 8.3282 29.467 7.4259H32.6743C32.7856 7.4259 32.8783 7.51037 32.8891 7.62127L33.1027 9.82699C33.1148 9.95304 33.0165 10.0626 32.89 10.0639Z" fill="#FFC33D"/>
<path id="Vector_11" d="M38.9288 21.3928C36.4826 21.7896 33.8017 22.0529 30.9878 22.1872C30.5044 18.1751 30.0821 14.2346 29.7004 10.1017L32.8843 10.064C33.0108 10.0627 33.1091 9.95308 33.097 9.82702L32.8834 7.6213C32.8726 7.51041 32.7799 7.42594 32.6685 7.42594H29.4613C29.4371 7.14394 29.4128 6.86065 29.3885 6.57605C31.2924 6.62327 33.2546 6.71857 35.3651 6.84635H35.3655C36.6858 10.7874 38.0616 16.4572 38.9288 21.3928Z" fill="#5E5087"/>
<path id="Vector_12" d="M39.8211 29.5737C39.7995 30.5306 39.6167 31.361 39.3022 32.0818C39.2827 32.1004 39.268 32.1203 39.2571 32.1429C37.0289 33.6486 34.5486 34.1662 32.6417 34.3351C32.6261 34.3364 32.6105 34.3377 32.5954 34.339C31.9898 30.0597 31.4618 26.0897 30.9913 22.1868C33.8052 22.0525 36.4861 21.7891 38.9323 21.3923C39.5123 24.694 39.8649 27.6664 39.8211 29.5737Z" fill="#453A6B"/>
<g id="Group_3">
<path id="Vector_13" d="M22.6446 25.9011C23.1077 25.9011 23.4832 25.4797 23.4832 24.9598C23.4832 24.44 23.1077 24.0186 22.6446 24.0186C22.1814 24.0186 21.8059 24.44 21.8059 24.9598C21.8059 25.4797 22.1814 25.9011 22.6446 25.9011Z" fill="#FFBB00"/>
<path id="Vector_14" d="M24.5495 25.9011C24.8667 25.9011 25.1239 25.6125 25.1239 25.2565C25.1239 24.9005 24.8667 24.6119 24.5495 24.6119C24.2323 24.6119 23.9751 24.9005 23.9751 25.2565C23.9751 25.6125 24.2323 25.9011 24.5495 25.9011Z" fill="#FFBB00"/>
<path id="Vector_15" d="M38.1097 25.2311C38.5248 25.2311 38.8612 24.8097 38.8612 24.2898C38.8612 23.7699 38.5248 23.3485 38.1097 23.3485C37.6946 23.3485 37.3582 23.7699 37.3582 24.2898C37.3582 24.8097 37.6946 25.2311 38.1097 25.2311Z" fill="#FFBB00"/>
<path id="Vector_16" d="M38.1076 23.3485C38.0708 23.3485 38.0348 23.352 37.9998 23.3585C38.3636 23.4243 38.643 23.8159 38.643 24.2898C38.643 24.7637 38.3632 25.1553 37.9998 25.2211C38.0348 25.2276 38.0712 25.2311 38.1076 25.2311C38.5226 25.2311 38.8591 24.8096 38.8591 24.2898C38.8591 23.77 38.5226 23.3485 38.1076 23.3485Z" fill="#C4293E"/>
<path id="Vector_17" d="M36.6822 26.3065C36.9664 26.3065 37.1968 26.0179 37.1968 25.6619C37.1968 25.3059 36.9664 25.0173 36.6822 25.0173C36.398 25.0173 36.1676 25.3059 36.1676 25.6619C36.1676 26.0179 36.398 26.3065 36.6822 26.3065Z" fill="#FFBB00"/>
<path id="Vector_18" d="M36.6823 25.0182C36.6563 25.0182 36.6307 25.0212 36.6056 25.026C36.8534 25.0724 37.0431 25.3392 37.0431 25.6623C37.0431 25.9855 36.8529 26.2523 36.6056 26.2987C36.6307 26.3034 36.6563 26.3065 36.6823 26.3065C36.9664 26.3065 37.1969 26.018 37.1969 25.6619C37.1969 25.3058 36.9664 25.0173 36.6823 25.0173V25.0182Z" fill="#C4293E"/>
<path id="Vector_19" d="M22.6434 24.0173C22.5975 24.0173 22.5529 24.0217 22.5092 24.0295C22.9086 24.1018 23.2135 24.4899 23.2135 24.9582C23.2135 25.4265 22.9086 25.815 22.5092 25.8869C22.5529 25.8947 22.598 25.8991 22.6434 25.8991C23.1065 25.8991 23.4821 25.4776 23.4821 24.9578C23.4821 24.438 23.1065 24.0165 22.6434 24.0165V24.0173Z" fill="#C4293E"/>
<path id="Vector_20" d="M24.5563 24.6119C24.5099 24.6119 24.4649 24.6189 24.422 24.6306C24.6741 24.6986 24.8617 24.9524 24.8617 25.2565C24.8617 25.5606 24.6741 25.8144 24.422 25.8824C24.4653 25.8941 24.5099 25.9011 24.5563 25.9011C24.8734 25.9011 25.1307 25.6126 25.1307 25.2565C25.1307 24.9004 24.8738 24.6119 24.5563 24.6119Z" fill="#C4293E"/>
</g>
</g>
<path id="Vector_21" d="M6.23789 12.5563L5.05229 13.4122C4.87858 16.3223 4.88681 19.2445 5.07655 22.1537L6.24959 22.7839C5.99272 19.3818 5.98882 15.9589 6.23789 12.5563Z" fill="url(#paint0_linear_2374_53909)"/>
<path id="Vector_22" d="M4.53275 13.7825L4.26246 13.9778C4.13424 16.5639 4.1507 19.1577 4.31054 21.742L4.5804 21.8871C4.4067 19.1902 4.39111 16.4816 4.53275 13.7829V13.7825Z" fill="url(#paint1_linear_2374_53909)"/>
</g>
</g>
<defs>
<linearGradient id="paint0_linear_2374_53909" x1="5.58856" y1="12.5563" x2="5.58856" y2="22.7835" gradientUnits="userSpaceOnUse">
<stop stop-color="#372E51"/>
<stop offset="1" stop-color="#291F3D"/>
</linearGradient>
<linearGradient id="paint1_linear_2374_53909" x1="4.37898" y1="13.7825" x2="4.37898" y2="21.8867" gradientUnits="userSpaceOnUse">
<stop stop-color="#372E51"/>
<stop offset="1" stop-color="#291F3D"/>
</linearGradient>
</defs>
</svg>
