<svg width="100" height="66" viewBox="0 0 100 66" fill="none" xmlns="http://www.w3.org/2000/svg">
<g id="Logo=redBus">
<path id="Vector" fill-rule="evenodd" clip-rule="evenodd" d="M94.6806 8.7402C92.1808 4.17332 88.9668 1.56367 85.5146 1.20781C53.1362 -1.81701 11.8298 5.35952 3.37808 13.1291C-0.312117 16.5098 -0.966829 24.4574 1.35442 37.4463C2.96144 46.5208 5.46125 54.6462 5.52077 55.0021L6.05644 56.7814L16.3533 55.6545C17.1865 61.2297 22.0076 65.5 27.8405 65.5C34.209 65.5 39.4467 60.34 39.4467 53.9345C39.4467 53.638 39.4467 53.4007 39.3872 53.1042L63.7901 50.3166C63.7901 50.3759 63.7901 50.4945 63.7901 50.5538C63.7901 56.9 68.9683 62.1193 75.3964 62.1193C81.7649 62.1193 87.0026 56.9593 87.0026 50.5538C87.0026 49.6049 86.8836 48.6559 86.6455 47.7663L97.0614 46.5801L97.5971 45.4532C101.763 36.9125 100.335 19.0602 94.6806 8.7402ZM27.8405 60.9331C23.9717 60.9331 20.8172 57.7897 20.8172 53.9345C20.8172 50.0794 23.9717 46.9359 27.8405 46.9359C31.7092 46.9359 34.8638 50.0794 34.8638 53.9345C34.8638 57.7897 31.7092 60.9331 27.8405 60.9331ZM75.3369 57.6118C71.4681 57.6118 68.3136 54.4683 68.3136 50.6132C68.3136 46.758 71.4681 43.6146 75.3369 43.6146C79.2056 43.6146 82.3601 46.758 82.3601 50.6132C82.3601 54.4683 79.2056 57.6118 75.3369 57.6118ZM93.9069 42.369L84.4433 43.4366C83.7291 42.4877 82.8363 41.7166 81.884 41.0642C80.0389 39.7594 77.7771 39.0477 75.3369 39.0477C71.7657 39.0477 68.4921 40.7084 66.409 43.2587C65.7543 43.9704 65.1591 44.8008 64.5639 45.6904L38.1373 48.6559C37.8992 48.1814 37.6016 47.707 37.3041 47.2918C37.2445 47.2325 37.2445 47.1732 37.185 47.1139C35.0423 44.267 31.6497 42.369 27.8405 42.369C24.8645 42.369 22.1862 43.4959 20.1625 45.2752C18.4364 46.6987 17.127 48.6559 16.3533 51.0283L9.33 51.7994C5.58029 38.8104 2.36625 20.2464 6.47308 16.4505C12.1274 11.2312 41.1133 5.00366 69.4445 5.00366C74.7417 5.00366 79.9794 5.2409 85.0385 5.71538C86.9431 5.95262 88.9668 7.79123 90.6928 10.9347C95.3353 19.416 96.8233 34.718 93.9069 42.369ZM16.8889 25.2284C16.6509 25.0505 16.2938 24.8726 15.8176 24.6946C15.3414 24.5167 14.8058 24.4574 14.2106 24.4574C13.4963 24.4574 12.9012 24.576 12.3655 24.7539C11.8893 24.9912 11.4727 25.2284 11.1156 25.5843V34.9553H7.18731V21.0767L11.1156 20.8395V22.2036L12.3655 21.4326C12.7821 21.1953 13.1988 21.0174 13.7344 20.8395C14.2701 20.6615 14.6867 20.6022 15.1629 20.6022C15.639 20.6022 15.9962 20.6022 16.2342 20.6615C16.5318 20.7208 16.7104 20.7802 16.8889 20.8395V25.2284ZM28.0786 26.7705C27.9 25.7029 27.4834 24.9319 26.8882 24.3981C26.293 23.8643 25.5788 23.627 24.686 23.627C23.6741 23.627 22.9004 23.9236 22.3647 24.5167C21.829 25.1098 21.5314 25.8808 21.4124 26.8298H28.0786V26.7705ZM31.7688 28.6091H21.4719C21.71 29.736 22.1266 30.5663 22.7814 31.0408C23.4361 31.5153 24.2693 31.8118 25.2216 31.8118C25.9954 31.8118 26.8287 31.6932 27.781 31.456C28.7333 31.2187 29.4475 30.9222 29.9832 30.5663V34.0656C29.4475 34.4215 28.7333 34.718 27.6619 34.896C26.6501 35.0739 25.8168 35.1925 25.2216 35.1925C22.7814 35.1925 20.8172 34.5401 19.4483 33.176C18.0793 31.8118 17.3651 30.0325 17.3651 27.7788C17.3651 25.525 18.0793 23.6864 19.5078 22.3222C20.9363 20.9581 22.6623 20.2464 24.805 20.2464C26.9477 20.2464 28.6142 21.0174 29.8641 22.5001C31.114 23.9829 31.7688 26.0588 31.7688 28.6091ZM43.0179 30.6849V24.576C42.7798 24.2795 42.4227 24.0422 41.9466 23.8643C41.4704 23.6864 40.9347 23.5677 40.3395 23.5677C39.2682 23.5677 38.4349 23.8643 37.9588 24.5167C37.4231 25.1691 37.185 26.1774 37.185 27.5415C37.185 28.965 37.4826 29.9732 38.0183 30.6849C38.554 31.3967 39.3277 31.6932 40.28 31.6932C40.8752 31.6932 41.4109 31.5746 41.887 31.3967C42.3632 31.2187 42.7203 30.9815 43.0179 30.6849ZM46.8867 34.9553H43.9107L43.0774 33.6505L40.9942 34.7773C40.8157 34.896 40.5776 34.9553 40.2205 35.0146C39.8634 35.0739 39.6253 35.0739 39.3872 35.0739C37.3636 35.0739 35.8161 34.4215 34.7447 32.998C33.6734 31.6339 33.1377 29.9139 33.1377 27.8381C33.1377 25.5843 33.7924 23.805 35.0423 22.5001C36.3517 21.1953 38.0183 20.5429 40.1015 20.5429C40.6966 20.5429 41.2323 20.6022 41.7085 20.6615C42.1846 20.7802 42.6013 20.8988 43.0179 21.1953V15.0864H46.8867V34.9553ZM60.219 28.6684C60.219 27.6601 59.9214 26.8891 59.3857 26.4146C58.85 25.9401 58.0763 25.7029 57.1835 25.7029H54.4456V31.6339H57.5406C58.4334 31.6339 59.1476 31.3967 59.5643 30.8629C59.9809 30.3884 60.219 29.6174 60.219 28.6684ZM59.5047 21.136C59.5047 20.365 59.2667 19.7126 58.7905 19.2381C58.3144 18.7636 57.6596 18.5264 56.8264 18.5264H54.4456V23.8643H57.0644C57.8382 23.8643 58.4334 23.627 58.85 23.1526C59.3262 22.6188 59.5047 21.9664 59.5047 21.136ZM64.6234 29.2022C64.6234 30.9222 64.0877 32.3456 62.9569 33.3539C61.826 34.4215 60.3975 34.896 58.6715 34.896H50.1602V15.1457H58.4929C60.0404 15.1457 61.3498 15.5609 62.3021 16.4505C63.314 17.3402 63.7901 18.5264 63.7901 20.0684C63.7901 21.3139 63.4925 22.2629 62.8973 23.0339C62.3021 23.805 61.4093 24.2201 60.219 24.3981C61.4093 24.576 62.4212 25.1098 63.314 25.9401C64.2068 26.7705 64.6234 27.8381 64.6234 29.2022ZM80.0984 34.9553H76.1701V33.4132L74.5036 34.3622C74.0274 34.5994 73.5513 34.8367 73.0751 34.9553C72.599 35.0739 72.0038 35.1925 71.4681 35.1925C70.0992 35.1925 69.0278 34.7774 68.1945 33.947C67.4208 33.1167 67.0042 31.9898 67.0042 30.5663V21.136H70.9324V29.6767C70.9324 30.2105 71.111 30.6256 71.4681 31.0408C71.8252 31.456 72.4204 31.6339 73.1346 31.6339C73.8489 31.6339 74.4441 31.5153 74.9202 31.2187C75.4559 30.9222 75.813 30.6849 76.0511 30.3884V21.0767H79.9794V34.9553H80.0984ZM93.7878 30.2105C93.7878 31.6932 93.2522 32.9387 92.1808 33.8877C91.1095 34.7773 89.7405 35.2518 88.1335 35.2518C87.3597 35.2518 86.467 35.1925 85.4551 35.0146C84.3838 34.8367 83.491 34.5401 82.6577 34.1249V30.6256C83.3124 30.9815 84.0267 31.2781 84.8599 31.5746C85.6932 31.8118 86.586 31.9898 87.7169 31.9898C88.4906 31.9898 89.0858 31.8712 89.562 31.6932C90.0381 31.456 90.2762 31.1001 90.2762 30.507C90.2762 30.1512 90.0976 29.7953 89.681 29.5581C89.2644 29.3208 88.6096 29.1429 87.5978 29.0836C85.8122 28.965 84.6219 28.4905 83.9076 27.7788C83.1934 27.067 82.8363 26.1181 82.8363 24.9319C82.8363 23.5677 83.3719 22.5001 84.4433 21.6105C85.5146 20.7208 86.8836 20.3057 88.4311 20.3057C89.1453 20.3057 89.8596 20.365 90.6333 20.4836C91.4071 20.6022 92.0618 20.7208 92.657 20.9581V24.5167C91.9427 24.2201 91.288 23.9829 90.6333 23.8643C89.9786 23.7457 89.2048 23.627 88.4311 23.627C87.7764 23.627 87.3002 23.7457 86.9431 23.9236C86.586 24.1608 86.4074 24.3981 86.4074 24.6353C86.4074 25.1691 86.6455 25.525 87.1812 25.6436C87.6573 25.8215 88.193 25.9401 88.7882 25.9401C90.4548 26.0588 91.7642 26.4739 92.5974 27.1856C93.3712 27.9567 93.7878 28.965 93.7878 30.2105Z" fill="#D63941"/>
</g>
</svg>
