<svg width="101" height="55" viewBox="0 0 101 55" fill="none" xmlns="http://www.w3.org/2000/svg">
<g id="Logo=redRail">
<g id="Vector">
<path d="M99.5448 37.0087L97.2913 39.7482H95.9762L96.3466 30.2649C96.3777 29.3984 96.2362 28.5344 95.9304 27.7232L88.9741 9.07928C88.5046 7.83384 87.6681 6.7607 86.5755 6.00207C85.483 5.24343 84.1859 4.83519 82.8563 4.83141H70.9309L68.7668 2.40016C68.3747 1.95946 67.8939 1.6069 67.3559 1.3656C66.8179 1.12431 66.235 0.999592 65.6455 1H59.6943C58.8222 0.999313 57.9718 1.27243 57.2626 1.78065C56.5534 2.28886 56.0212 3.00674 55.7406 3.83348L55.4014 4.83141H0.5V8.78976H82.8646C83.3881 8.79064 83.899 8.95039 84.33 9.24794C84.7609 9.54549 85.0916 9.96686 85.2785 10.4564L92.2348 29.0981C92.3552 29.4186 92.4097 29.7602 92.395 30.1024L91.9663 41.1274C91.9421 41.7939 91.66 42.4249 91.1797 42.8871C90.6994 43.3493 90.0585 43.6065 89.3923 43.6044H80.2948C79.7854 43.605 79.2874 43.4545 78.8636 43.1715C78.4399 42.8885 78.1095 42.4859 77.9143 42.0149L76.1893 37.8482C75.741 36.7589 74.9789 35.8279 74.0002 35.1738C73.0215 34.5197 71.8704 34.172 70.6937 34.1753H70.675L17.2239 34.3836C16.1139 34.3831 15.0261 34.6954 14.0852 35.2849C13.1442 35.8744 12.388 36.7172 11.9031 37.7169L11.0437 39.4607C10.8299 39.8921 10.5004 40.2553 10.0921 40.5099C9.68384 40.7645 9.21288 40.9004 8.73189 40.9024H0.5V44.8608H8.73189C9.78484 44.8562 10.8213 44.5987 11.7541 44.1096C12.6869 43.6205 13.4887 42.9142 14.0922 42.0503C13.406 44.5381 13.6846 47.1937 14.8722 49.4844C16.0598 51.7751 18.0686 53.5317 20.4956 54.4016C22.9227 55.2715 25.5884 55.1904 27.9583 54.1748C30.3282 53.1591 32.2269 51.2839 33.2736 48.9253H28.6228C27.7789 49.8756 26.6664 50.5467 25.4328 50.8494C24.1993 51.152 22.9029 51.072 21.7158 50.6201C20.5286 50.1681 19.5068 49.3654 18.7858 48.3186C18.0647 47.2718 17.6786 46.0302 17.6786 44.7586C17.6786 43.487 18.0647 42.2454 18.7858 41.1986C19.5068 40.1518 20.5286 39.3493 21.7158 38.8974C22.9029 38.4454 24.1993 38.3654 25.4328 38.6681C26.6664 38.9708 27.7789 39.6416 28.6228 40.5919H33.2673C32.896 39.7642 32.4167 38.9895 31.8419 38.2878L36.1597 38.2691C35.5775 38.975 35.0932 39.7563 34.7198 40.5919H39.3705C39.9573 39.9304 40.6776 39.401 41.4837 39.0384C42.2898 38.6758 43.1635 38.4882 44.0472 38.4882C44.931 38.4882 45.8047 38.6758 46.6108 39.0384C47.4169 39.401 48.1371 39.9304 48.724 40.5919H53.3768C52.9908 39.7322 52.4888 38.9297 51.8848 38.2067L56.3358 38.1877C55.724 38.9152 55.2162 39.7244 54.8271 40.5919H59.4862C60.3302 39.6409 61.4431 38.9693 62.6771 38.6663C63.9112 38.3632 65.2081 38.4429 66.3959 38.8949C67.5836 39.3469 68.6061 40.1499 69.3275 41.1972C70.0489 42.2444 70.4353 43.4865 70.4353 44.7586C70.4353 46.0308 70.0489 47.273 69.3275 48.3202C68.6061 49.3675 67.5836 50.1703 66.3959 50.6223C65.2081 51.0743 63.9112 51.1541 62.6771 50.851C61.4431 50.5479 60.3302 49.8763 59.4862 48.9253H54.8334C55.7868 51.0649 57.4449 52.812 59.5305 53.8745C61.6161 54.937 64.0027 55.2506 66.2915 54.7628C68.5803 54.2749 70.6324 53.0151 72.1048 51.1942C73.5773 49.3733 74.3808 47.1015 74.381 44.7586C74.3808 44.3932 74.3607 44.0281 74.3206 43.6649C74.8297 44.8251 75.6655 45.8115 76.7258 46.5034C77.7861 47.1954 79.025 47.5628 80.2906 47.5608H89.3923C90.6613 47.5644 91.9036 47.1966 92.9665 46.5026C94.0294 45.8086 94.8665 44.8186 95.3748 43.6545H97.4432L99.549 45.9191C99.6228 45.9979 99.7185 46.0528 99.8237 46.0766C99.929 46.1004 100.039 46.0919 100.139 46.0524C100.24 46.0129 100.326 45.9442 100.387 45.855C100.448 45.7659 100.481 45.6605 100.481 45.5525L100.5 37.3587C100.501 37.2469 100.468 37.1374 100.405 37.0454C100.342 36.9533 100.251 36.8832 100.146 36.8448C100.041 36.8063 99.9272 36.8013 99.8195 36.8307C99.7118 36.8601 99.6158 36.9224 99.5448 37.0087Z" fill="#D84E55"/>
<path d="M44.0546 51.0238C43.1703 51.0244 42.2961 50.8369 41.4896 50.4738C40.6832 50.1107 39.963 49.5802 39.3768 48.9174H34.724C35.5267 50.7232 36.8352 52.2573 38.4908 53.3339C40.1464 54.4105 42.0783 54.9835 44.0525 54.9835C46.0267 54.9835 47.9585 54.4105 49.6142 53.3339C51.2698 52.2573 52.5782 50.7232 53.381 48.9174H48.7303C48.1442 49.5799 47.4244 50.1103 46.6184 50.4734C45.8123 50.8365 44.9384 51.0241 44.0546 51.0238Z" fill="#D84E55"/>
<path d="M66.1449 44.7506C66.1449 44.2257 65.9367 43.7225 65.5659 43.3513C65.1952 42.9801 64.6924 42.7715 64.1681 42.7715H23.945C23.4208 42.7715 22.9179 42.9801 22.5472 43.3513C22.1765 43.7225 21.9682 44.2257 21.9682 44.7506C21.9682 45.2755 22.1765 45.779 22.5472 46.1502C22.9179 46.5213 23.4208 46.7298 23.945 46.7298H64.1619C64.422 46.7306 64.6797 46.6802 64.9203 46.5811C65.1608 46.482 65.3795 46.3363 65.5637 46.1524C65.7479 45.9685 65.8941 45.75 65.9938 45.5095C66.0936 45.269 66.1449 45.0111 66.1449 44.7506Z" fill="#D84E55"/>
<path d="M0.511963 29V17.702H3.64096V20.894L3.19996 19.97C3.53596 19.172 4.07496 18.57 4.81696 18.164C5.55896 17.744 6.46196 17.534 7.52596 17.534V20.558C7.38596 20.544 7.25996 20.537 7.14796 20.537C7.03596 20.523 6.91696 20.516 6.79096 20.516C5.89496 20.516 5.16696 20.775 4.60696 21.293C4.06096 21.797 3.78796 22.588 3.78796 23.666V29H0.511963Z" fill="#D84E55"/>
<path d="M14.9988 29.168C13.7108 29.168 12.5768 28.916 11.5968 28.412C10.6308 27.908 9.88185 27.222 9.34985 26.354C8.81785 25.472 8.55185 24.471 8.55185 23.351C8.55185 22.217 8.81085 21.216 9.32885 20.348C9.86085 19.466 10.5818 18.78 11.4918 18.29C12.4018 17.786 13.4308 17.534 14.5788 17.534C15.6848 17.534 16.6788 17.772 17.5608 18.248C18.4568 18.71 19.1638 19.382 19.6818 20.264C20.1998 21.132 20.4588 22.175 20.4588 23.393C20.4588 23.519 20.4518 23.666 20.4378 23.834C20.4238 23.988 20.4098 24.135 20.3958 24.275H11.2188V22.364H18.6738L17.4138 22.931C17.4138 22.343 17.2948 21.832 17.0568 21.398C16.8188 20.964 16.4898 20.628 16.0698 20.39C15.6498 20.138 15.1598 20.012 14.5998 20.012C14.0398 20.012 13.5428 20.138 13.1088 20.39C12.6888 20.628 12.3598 20.971 12.1218 21.419C11.8838 21.853 11.7648 22.371 11.7648 22.973V23.477C11.7648 24.093 11.8978 24.639 12.1638 25.115C12.4438 25.577 12.8288 25.934 13.3188 26.186C13.8228 26.424 14.4108 26.543 15.0828 26.543C15.6848 26.543 16.2098 26.452 16.6578 26.27C17.1198 26.088 17.5398 25.815 17.9178 25.451L19.6608 27.341C19.1428 27.929 18.4918 28.384 17.7078 28.706C16.9238 29.014 16.0208 29.168 14.9988 29.168Z" fill="#D84E55"/>
<path d="M27.4909 29.168C26.4269 29.168 25.4679 28.93 24.6139 28.454C23.7599 27.964 23.0809 27.285 22.5769 26.417C22.0869 25.549 21.8419 24.527 21.8419 23.351C21.8419 22.161 22.0869 21.132 22.5769 20.264C23.0809 19.396 23.7599 18.724 24.6139 18.248C25.4679 17.772 26.4269 17.534 27.4909 17.534C28.4429 17.534 29.2759 17.744 29.9899 18.164C30.7039 18.584 31.2569 19.221 31.6489 20.075C32.0409 20.929 32.2369 22.021 32.2369 23.351C32.2369 24.667 32.0479 25.759 31.6699 26.627C31.2919 27.481 30.7459 28.118 30.0319 28.538C29.3319 28.958 28.4849 29.168 27.4909 29.168ZM28.0579 26.48C28.5899 26.48 29.0729 26.354 29.5069 26.102C29.9409 25.85 30.2839 25.493 30.5359 25.031C30.8019 24.555 30.9349 23.995 30.9349 23.351C30.9349 22.693 30.8019 22.133 30.5359 21.671C30.2839 21.209 29.9409 20.852 29.5069 20.6C29.0729 20.348 28.5899 20.222 28.0579 20.222C27.5119 20.222 27.0219 20.348 26.5879 20.6C26.1539 20.852 25.8039 21.209 25.5379 21.671C25.2859 22.133 25.1599 22.693 25.1599 23.351C25.1599 23.995 25.2859 24.555 25.5379 25.031C25.8039 25.493 26.1539 25.85 26.5879 26.102C27.0219 26.354 27.5119 26.48 28.0579 26.48ZM31.0189 29V26.69L31.0819 23.33L30.8719 19.991V13.418H34.1479V29H31.0189Z" fill="#D84E55"/>
<path d="M37.4109 29V14.3H43.7739C45.0899 14.3 46.2239 14.517 47.1759 14.951C48.1279 15.371 48.8629 15.98 49.3809 16.778C49.8989 17.576 50.1579 18.528 50.1579 19.634C50.1579 20.726 49.8989 21.671 49.3809 22.469C48.8629 23.253 48.1279 23.855 47.1759 24.275C46.2239 24.695 45.0899 24.905 43.7739 24.905H39.3009L40.8129 23.414V29H37.4109ZM46.7559 29L43.0809 23.666H46.7139L50.4309 29H46.7559ZM40.8129 23.792L39.3009 22.196H43.5849C44.6349 22.196 45.4189 21.972 45.9369 21.524C46.4549 21.062 46.7139 20.432 46.7139 19.634C46.7139 18.822 46.4549 18.192 45.9369 17.744C45.4189 17.296 44.6349 17.072 43.5849 17.072H39.3009L40.8129 15.455V23.792Z" fill="#D84E55"/>
<path d="M59.4498 29V26.795L59.2398 26.312V22.364C59.2398 21.664 59.0228 21.118 58.5888 20.726C58.1688 20.334 57.5178 20.138 56.6358 20.138C56.0338 20.138 55.4388 20.236 54.8508 20.432C54.2768 20.614 53.7868 20.866 53.3808 21.188L52.2048 18.899C52.8208 18.465 53.5628 18.129 54.4308 17.891C55.2988 17.653 56.1808 17.534 57.0768 17.534C58.7988 17.534 60.1358 17.94 61.0878 18.752C62.0398 19.564 62.5158 20.831 62.5158 22.553V29H59.4498ZM56.0058 29.168C55.1238 29.168 54.3678 29.021 53.7378 28.727C53.1078 28.419 52.6248 28.006 52.2888 27.488C51.9528 26.97 51.7848 26.389 51.7848 25.745C51.7848 25.073 51.9458 24.485 52.2678 23.981C52.6038 23.477 53.1288 23.085 53.8428 22.805C54.5568 22.511 55.4878 22.364 56.6358 22.364H59.6388V24.275H56.9928C56.2228 24.275 55.6908 24.401 55.3968 24.653C55.1168 24.905 54.9768 25.22 54.9768 25.598C54.9768 26.018 55.1378 26.354 55.4598 26.606C55.7958 26.844 56.2508 26.963 56.8248 26.963C57.3708 26.963 57.8608 26.837 58.2948 26.585C58.7288 26.319 59.0438 25.934 59.2398 25.43L59.7438 26.942C59.5058 27.67 59.0718 28.223 58.4418 28.601C57.8118 28.979 56.9998 29.168 56.0058 29.168Z" fill="#D84E55"/>
<path d="M65.4807 29V17.702H68.7567V29H65.4807ZM67.1187 16.127C66.5167 16.127 66.0267 15.952 65.6487 15.602C65.2707 15.252 65.0817 14.818 65.0817 14.3C65.0817 13.782 65.2707 13.348 65.6487 12.998C66.0267 12.648 66.5167 12.473 67.1187 12.473C67.7207 12.473 68.2107 12.641 68.5887 12.977C68.9667 13.299 69.1557 13.719 69.1557 14.237C69.1557 14.783 68.9667 15.238 68.5887 15.602C68.2247 15.952 67.7347 16.127 67.1187 16.127Z" fill="#D84E55"/>
<path d="M71.7971 29V13.418H75.0731V29H71.7971Z" fill="#D84E55"/>
</g>
</g>
</svg>
