<svg width="20" height="20" viewBox="0 0 20 20" fill="none" xmlns="http://www.w3.org/2000/svg">
<path d="M7.50017 17.5H12.5002M15.0002 7.16667C15.0002 5.92899 14.4734 4.74201 13.5357 3.86683C12.598 2.99167 11.3263 2.5 10.0002 2.5C8.67409 2.5 7.40232 2.99167 6.46464 3.86683C5.52696 4.74201 5.00017 5.92899 5.00017 7.16667C5.00017 9.40517 4.43668 10.9862 3.77305 12.0722C3.1303 13.1238 2.80894 13.6497 2.82088 13.7863C2.8343 13.9397 2.86459 13.9937 2.98853 14.0852C3.09885 14.1667 3.62319 14.1667 4.67189 14.1667H15.3285C16.3772 14.1667 16.9015 14.1667 17.0118 14.0852C17.1358 13.9937 17.1661 13.9397 17.1795 13.7863C17.1914 13.6497 16.87 13.1238 16.2273 12.0722C15.5637 10.9862 15.0002 9.40517 15.0002 7.16667Z" stroke="#726F86" stroke-width="1.5" stroke-linecap="round" stroke-linejoin="round"/>
</svg>
