<svg width="20" height="20" viewBox="0 0 20 20" fill="none" xmlns="http://www.w3.org/2000/svg">
<g clip-path="url(#clip0_3044_673)">
<path d="M1.66668 14.5833H3.75C4.67047 14.5833 5.41668 15.3295 5.41668 16.25V18.3333C5.41668 19.2538 4.67047 20 3.75 20H1.66668C0.746211 20 0 19.2538 0 18.3333V16.25C0 15.3295 0.746211 14.5833 1.66668 14.5833Z" fill="#5F5F5F"/>
<path d="M19.2651 14.8683C18.9901 14.682 18.6655 14.5827 18.3334 14.5833H16.2501C15.3296 14.5833 14.5834 15.3294 14.5834 16.25V18.3333C14.5834 19.2538 15.3296 20 16.2501 20H18.3334C19.2539 20 20.0001 19.2538 20.0001 18.3333V16.25C20 15.6958 19.7245 15.178 19.2651 14.8683Z" fill="#5F5F5F"/>
<path d="M1.66668 7.29169H3.75C4.67047 7.29169 5.41668 8.0379 5.41668 8.95837V11.0417C5.41668 11.9622 4.67047 12.7084 3.75 12.7084H1.66668C0.746211 12.7083 0 11.9622 0 11.0417V8.95837C0 8.03786 0.746211 7.29169 1.66668 7.29169Z" fill="#5F5F5F"/>
<path d="M19.2651 7.57664C18.9901 7.39039 18.6655 7.2911 18.3334 7.29164H16.2501C15.3296 7.29164 14.5834 8.03786 14.5834 8.95833V11.0417C14.5834 11.9621 15.3296 12.7083 16.2501 12.7083H18.3334C19.2538 12.7083 20.0001 11.9621 20.0001 11.0417V8.95833C20 8.40418 19.7245 7.88637 19.2651 7.57664Z" fill="#5F5F5F"/>
<path d="M1.66668 0H3.75C4.67047 0 5.41668 0.746211 5.41668 1.66668V3.75C5.41668 4.67047 4.67047 5.41668 3.75 5.41668H1.66668C0.746211 5.41668 0 4.67047 0 3.75V1.66668C0 0.746211 0.746211 0 1.66668 0Z" fill="#5F5F5F"/>
<path d="M11.9733 14.8683C11.6984 14.682 11.3737 14.5827 11.0416 14.5833H8.95831C8.03784 14.5833 7.29163 15.3294 7.29163 16.25V18.3333C7.29163 19.2537 8.03784 20 8.95831 20H11.0416C11.9621 20 12.7083 19.2538 12.7083 18.3333V16.25C12.7082 15.6958 12.4328 15.178 11.9733 14.8683Z" fill="#5F5F5F"/>
<path d="M11.9733 7.57664C11.6984 7.39039 11.3737 7.2911 11.0416 7.29164H8.95831C8.03784 7.29164 7.29163 8.03786 7.29163 8.95833V11.0417C7.29163 11.9621 8.03784 12.7083 8.95831 12.7083H11.0416C11.9621 12.7083 12.7083 11.9621 12.7083 11.0417V8.95833C12.7082 8.40418 12.4328 7.88637 11.9733 7.57664Z" fill="#5F5F5F"/>
<path d="M11.9733 0.284955C11.6984 0.0987046 11.3737 -0.000592312 11.0416 -4.54369e-05H8.95831C8.03784 -4.54369e-05 7.29163 0.746166 7.29163 1.66663V3.74996C7.29163 4.67042 8.03784 5.41664 8.95831 5.41664H11.0416C11.9621 5.41664 12.7083 4.67042 12.7083 3.74996V1.66663C12.7082 1.11253 12.4328 0.594681 11.9733 0.284955Z" fill="#5F5F5F"/>
<path d="M19.7151 0.735C19.4053 0.275547 18.8875 7.8125e-05 18.3334 0H16.2501C15.3296 0 14.5834 0.746211 14.5834 1.66668V3.75C14.5834 4.67047 15.3296 5.41668 16.2501 5.41668H18.3334C19.2539 5.41668 20.0001 4.67047 20.0001 3.75V1.66668C20.0006 1.33457 19.9013 1.00996 19.7151 0.735Z" fill="#5F5F5F"/>
</g>
<defs>
<clipPath id="clip0_3044_673">
<rect width="20" height="20" fill="white"/>
</clipPath>
</defs>
</svg>
