<svg width="16" height="16" viewBox="0 0 16 16" fill="none" xmlns="http://www.w3.org/2000/svg">
<g clip-path="url(#clip0_3044_730)">
<path d="M3.33341 9.33334C3.7016 9.33334 4.00008 9.03486 4.00008 8.66667C4.00008 8.29848 3.7016 8 3.33341 8C2.96522 8 2.66675 8.29848 2.66675 8.66667C2.66675 9.03486 2.96522 9.33334 3.33341 9.33334Z" fill="#705ECA"/>
<path d="M0.666667 6.66676C1.03486 6.66676 1.33333 6.36828 1.33333 6.00009C1.33333 5.63191 1.03486 5.33343 0.666667 5.33343C0.298477 5.33343 0 5.63191 0 6.00009C0 6.36828 0.298477 6.66676 0.666667 6.66676Z" fill="#705ECA"/>
<path d="M3.33341 3.99989C3.7016 3.99989 4.00008 3.70141 4.00008 3.33322C4.00008 2.96504 3.7016 2.66656 3.33341 2.66656C2.96522 2.66656 2.66675 2.96504 2.66675 3.33322C2.66675 3.70141 2.96522 3.99989 3.33341 3.99989Z" fill="#705ECA"/>
<path d="M0.666667 1.33333C1.03486 1.33333 1.33333 1.03486 1.33333 0.666667C1.33333 0.298477 1.03486 0 0.666667 0C0.298477 0 0 0.298477 0 0.666667C0 1.03486 0.298477 1.33333 0.666667 1.33333Z" fill="#705ECA"/>
<path d="M15.3334 9.33334C15.7016 9.33334 16.0001 9.03486 16.0001 8.66667C16.0001 8.29848 15.7016 8 15.3334 8C14.9652 8 14.6667 8.29848 14.6667 8.66667C14.6667 9.03486 14.9652 9.33334 15.3334 9.33334Z" fill="#705ECA"/>
<path d="M12.6667 6.66676C13.0349 6.66676 13.3333 6.36828 13.3333 6.00009C13.3333 5.63191 13.0349 5.33343 12.6667 5.33343C12.2985 5.33343 12 5.63191 12 6.00009C12 6.36828 12.2985 6.66676 12.6667 6.66676Z" fill="#705ECA"/>
<path d="M15.3334 3.99989C15.7016 3.99989 16.0001 3.70141 16.0001 3.33322C16.0001 2.96504 15.7016 2.66656 15.3334 2.66656C14.9652 2.66656 14.6667 2.96504 14.6667 3.33322C14.6667 3.70141 14.9652 3.99989 15.3334 3.99989Z" fill="#705ECA"/>
<path d="M12.6667 1.33333C13.0349 1.33333 13.3333 1.03485 13.3333 0.666661C13.3333 0.298471 13.0349 -5.72205e-06 12.6667 -5.72205e-06C12.2985 -5.72205e-06 12 0.298471 12 0.666661C12 1.03485 12.2985 1.33333 12.6667 1.33333Z" fill="#705ECA"/>
<path d="M9.33342 15.9999C9.70161 15.9999 10.0001 15.7014 10.0001 15.3332C10.0001 14.965 9.70161 14.6666 9.33342 14.6666C8.96523 14.6666 8.66675 14.965 8.66675 15.3332C8.66675 15.7014 8.96523 15.9999 9.33342 15.9999Z" fill="#705ECA"/>
<path d="M6.66667 13.3333C7.03485 13.3333 7.33333 13.0349 7.33333 12.6667C7.33333 12.2985 7.03485 12 6.66667 12C6.29848 12 6 12.2985 6 12.6667C6 13.0349 6.29848 13.3333 6.66667 13.3333Z" fill="#705ECA"/>
<path d="M9.33342 10.6668C9.70161 10.6668 10.0001 10.3683 10.0001 10.0001C10.0001 9.63191 9.70161 9.33343 9.33342 9.33343C8.96523 9.33343 8.66675 9.63191 8.66675 10.0001C8.66675 10.3683 8.96523 10.6668 9.33342 10.6668Z" fill="#705ECA"/>
<path d="M6.66667 7.9999C7.03485 7.9999 7.33333 7.70142 7.33333 7.33323C7.33333 6.96504 7.03485 6.66656 6.66667 6.66656C6.29848 6.66656 6 6.96504 6 7.33323C6 7.70142 6.29848 7.9999 6.66667 7.9999Z" fill="#705ECA"/>
<path d="M9.99991 1.99999C9.64629 1.99999 9.30715 1.85952 9.0571 1.60947C8.80705 1.35942 8.66658 1.02028 8.66658 0.666661C8.66658 0.48985 8.59634 0.320281 8.47132 0.195256C8.34629 0.0702322 8.17672 -5.72205e-06 7.99991 -5.72205e-06C7.8231 -5.72205e-06 7.65353 0.0702322 7.52851 0.195256C7.40349 0.320281 7.33325 0.48985 7.33325 0.666661C7.33325 1.02028 7.19277 1.35942 6.94272 1.60947C6.69268 1.85952 6.35354 1.99999 5.99992 1.99999C5.82311 1.99999 5.65354 2.07023 5.52851 2.19526C5.40349 2.32028 5.33325 2.48985 5.33325 2.66666C5.33325 2.84347 5.40349 3.01304 5.52851 3.13807C5.65354 3.26309 5.82311 3.33333 5.99992 3.33333C6.35354 3.33333 6.69268 3.4738 6.94272 3.72385C7.19277 3.9739 7.33325 4.31304 7.33325 4.66666C7.33325 4.84347 7.40349 5.01304 7.52851 5.13807C7.65353 5.26309 7.8231 5.33333 7.99991 5.33333C8.17672 5.33333 8.34629 5.26309 8.47132 5.13807C8.59634 5.01304 8.66658 4.84347 8.66658 4.66666C8.66658 4.31304 8.80705 3.9739 9.0571 3.72385C9.30715 3.4738 9.64629 3.33333 9.99991 3.33333C10.1767 3.33333 10.3463 3.26309 10.4713 3.13807C10.5963 3.01304 10.6666 2.84347 10.6666 2.66666C10.6666 2.48985 10.5963 2.32028 10.4713 2.19526C10.3463 2.07023 10.1767 1.99999 9.99991 1.99999Z" fill="#705ECA"/>
<path d="M4.66667 12.6666C4.31305 12.6666 3.97391 12.5261 3.72386 12.276C3.47381 12.026 3.33333 11.6869 3.33333 11.3332C3.33333 11.1564 3.2631 10.9869 3.13807 10.8618C3.01305 10.7368 2.84348 10.6666 2.66667 10.6666C2.48986 10.6666 2.32029 10.7368 2.19526 10.8618C2.07024 10.9869 2 11.1564 2 11.3332C2 11.6869 1.85952 12.026 1.60948 12.276C1.35943 12.5261 1.02029 12.6666 0.666667 12.6666C0.489856 12.6666 0.320286 12.7368 0.195262 12.8618C0.0702379 12.9869 0 13.1564 0 13.3332C0 13.51 0.0702379 13.6796 0.195262 13.8046C0.320286 13.9297 0.489856 13.9999 0.666667 13.9999C1.02029 13.9999 1.35943 14.1404 1.60948 14.3904C1.85952 14.6405 2 14.9796 2 15.3332C2 15.51 2.07024 15.6796 2.19526 15.8046C2.32029 15.9297 2.48986 15.9999 2.66667 15.9999C2.84348 15.9999 3.01305 15.9297 3.13807 15.8046C3.2631 15.6796 3.33333 15.51 3.33333 15.3332C3.33333 14.9796 3.47381 14.6405 3.72386 14.3904C3.97391 14.1404 4.31305 13.9999 4.66667 13.9999C4.84348 13.9999 5.01305 13.9297 5.13807 13.8046C5.2631 13.6796 5.33333 13.51 5.33333 13.3332C5.33333 13.1564 5.2631 12.9869 5.13807 12.8618C5.01305 12.7368 4.84348 12.6666 4.66667 12.6666Z" fill="#705ECA"/>
<path d="M15.3334 12.6666C14.9798 12.6666 14.6406 12.5261 14.3906 12.276C14.1406 12.026 14.0001 11.6869 14.0001 11.3332C14.0001 11.1564 13.9298 10.9869 13.8048 10.8618C13.6798 10.7368 13.5102 10.6666 13.3334 10.6666C13.1566 10.6666 12.987 10.7368 12.862 10.8618C12.737 10.9869 12.6667 11.1564 12.6667 11.3332C12.6667 11.6869 12.5263 12.026 12.2762 12.276C12.0262 12.5261 11.687 12.6666 11.3334 12.6666C11.1566 12.6666 10.987 12.7368 10.862 12.8618C10.737 12.9869 10.6667 13.1564 10.6667 13.3332C10.6667 13.51 10.737 13.6796 10.862 13.8046C10.987 13.9297 11.1566 13.9999 11.3334 13.9999C11.687 13.9999 12.0262 14.1404 12.2762 14.3904C12.5263 14.6405 12.6667 14.9796 12.6667 15.3332C12.6667 15.51 12.737 15.6796 12.862 15.8046C12.987 15.9297 13.1566 15.9999 13.3334 15.9999C13.5102 15.9999 13.6798 15.9297 13.8048 15.8046C13.9298 15.6796 14.0001 15.51 14.0001 15.3332C14.0001 14.9796 14.1406 14.6405 14.3906 14.3904C14.6406 14.1404 14.9798 13.9999 15.3334 13.9999C15.5102 13.9999 15.6798 13.9297 15.8048 13.8046C15.9298 13.6796 16.0001 13.51 16.0001 13.3332C16.0001 13.1564 15.9298 12.9869 15.8048 12.8618C15.6798 12.7368 15.5102 12.6666 15.3334 12.6666Z" fill="#705ECA"/>
</g>
<defs>
<clipPath id="clip0_3044_730">
<rect width="16" height="16" fill="white"/>
</clipPath>
</defs>
</svg>
