<svg width="20" height="20" viewBox="0 0 20 20" fill="none" xmlns="http://www.w3.org/2000/svg">
<path d="M10 1.25C5.16797 1.25 1.25 5.16797 1.25 10C1.25 14.832 5.16797 18.75 10 18.75C14.832 18.75 18.75 14.832 18.75 10C18.75 5.16797 14.832 1.25 10 1.25ZM10 15.0781C9.56836 15.0781 9.21875 14.7285 9.21875 14.2969C9.21875 13.8652 9.56836 13.5156 10 13.5156C10.4316 13.5156 10.7812 13.8652 10.7812 14.2969C10.7812 14.7285 10.4316 15.0781 10 15.0781ZM11.2285 10.791C11.0516 10.8593 10.8994 10.9793 10.7918 11.1354C10.6841 11.2915 10.626 11.4764 10.625 11.666V12.1094C10.625 12.1953 10.5547 12.2656 10.4688 12.2656H9.53125C9.44531 12.2656 9.375 12.1953 9.375 12.1094V11.6895C9.375 11.2383 9.50586 10.793 9.76367 10.4219C10.0156 10.0586 10.3672 9.78125 10.7812 9.62305C11.4453 9.36719 11.875 8.81055 11.875 8.20312C11.875 7.3418 11.0332 6.64062 10 6.64062C8.9668 6.64062 8.125 7.3418 8.125 8.20312V8.35156C8.125 8.4375 8.05469 8.50781 7.96875 8.50781H7.03125C6.94531 8.50781 6.875 8.4375 6.875 8.35156V8.20312C6.875 7.43555 7.21094 6.71875 7.82031 6.18555C8.40625 5.67188 9.17969 5.39062 10 5.39062C10.8203 5.39062 11.5938 5.67383 12.1797 6.18555C12.7891 6.71875 13.125 7.43555 13.125 8.20312C13.125 9.33203 12.3809 10.3477 11.2285 10.791Z" fill="#726F86"/>
</svg>
