<svg width="14" height="14" viewBox="0 0 14 14" fill="none" xmlns="http://www.w3.org/2000/svg">
<path d="M10.9141 4.78917C10.8599 4.73449 10.7954 4.69109 10.7243 4.66148C10.6532 4.63186 10.5769 4.61662 10.4999 4.61662C10.4229 4.61662 10.3467 4.63186 10.2756 4.66148C10.2045 4.69109 10.14 4.73449 10.0858 4.78917L7.4141 7.46083C7.35987 7.5155 7.29536 7.5589 7.22427 7.58851C7.15319 7.61813 7.07694 7.63338 6.99993 7.63338C6.92293 7.63338 6.84668 7.61813 6.7756 7.58851C6.70451 7.5589 6.64 7.5155 6.58577 7.46083L3.9141 4.78917C3.85987 4.73449 3.79535 4.69109 3.72427 4.66148C3.65319 4.63186 3.57694 4.61662 3.49993 4.61662C3.42293 4.61662 3.34668 4.63186 3.2756 4.66148C3.20451 4.69109 3.14 4.73449 3.08577 4.78917C2.97712 4.89846 2.91614 5.04631 2.91614 5.20042C2.91614 5.35452 2.97712 5.50237 3.08577 5.61166L5.76327 8.28916C6.09139 8.61688 6.53618 8.80095 6.99993 8.80095C7.46369 8.80095 7.90847 8.61688 8.2366 8.28916L10.9141 5.61166C11.0227 5.50237 11.0837 5.35452 11.0837 5.20042C11.0837 5.04631 11.0227 4.89846 10.9141 4.78917Z" fill="#5B5772"/>
</svg>
