<svg width="32" height="32" viewBox="0 0 32 32" fill="none" xmlns="http://www.w3.org/2000/svg">
<path d="M27.0058 4H15.4513C15.4513 6.88 17.7823 9.212 20.663 9.212H22.788V11.2685C22.788 14.1485 25.12 16.4805 28 16.4805V4.99425C27.9998 4.73062 27.895 4.47784 27.7086 4.29143C27.5222 4.10501 27.2694 4.0002 27.0058 4Z" fill="#2684FF"/>
<path d="M21.2802 9.76H9.72546C9.72546 12.6398 12.0567 14.9718 14.9365 14.9718H17.0625V17.0282C17.0625 19.9082 19.3945 22.2402 22.2745 22.2402V10.754C22.2741 10.4904 22.1692 10.2378 21.9828 10.0514C21.7964 9.86503 21.5438 9.76015 21.2802 9.75975V9.76Z" fill="url(#paint0_linear_3044_685)"/>
<path d="M15.5548 15.5195H4C4 18.4005 6.331 20.7315 9.212 20.7315H11.337V22.789C11.337 25.669 13.669 28 16.5487 28V16.5148C16.5485 16.2511 16.4437 15.9983 16.2574 15.8118C16.0711 15.6253 15.8184 15.5203 15.5548 15.5198V15.5195Z" fill="url(#paint1_linear_3044_685)"/>
<defs>
<linearGradient id="paint0_linear_3044_685" x1="22.034" y1="9.773" x2="17.118" y2="14.842" gradientUnits="userSpaceOnUse">
<stop offset="0.176" stop-color="#0052CC"/>
<stop offset="1" stop-color="#2684FF"/>
</linearGradient>
<linearGradient id="paint1_linear_3044_685" x1="16.641" y1="15.564" x2="10.957" y2="21.094" gradientUnits="userSpaceOnUse">
<stop offset="0.176" stop-color="#0052CC"/>
<stop offset="1" stop-color="#2684FF"/>
</linearGradient>
</defs>
</svg>
