<svg width="20" height="20" viewBox="0 0 20 20" fill="none" xmlns="http://www.w3.org/2000/svg">
<g clip-path="url(#clip0_3044_758)">
<path d="M10.0001 6.66718C9.34081 6.66718 8.69635 6.86267 8.14818 7.22894C7.60002 7.59521 7.17278 8.11581 6.92048 8.7249C6.66819 9.33398 6.60218 10.0042 6.7308 10.6508C6.85942 11.2974 7.17689 11.8914 7.64306 12.3575C8.10924 12.8237 8.70318 13.1412 9.34978 13.2698C9.99639 13.3984 10.6666 13.3324 11.2757 13.0801C11.8848 12.8278 12.4054 12.4006 12.7716 11.8524C13.1379 11.3042 13.3334 10.6598 13.3334 10.0005C13.3334 9.11645 12.9822 8.26861 12.3571 7.64349C11.732 7.01836 10.8841 6.66718 10.0001 6.66718ZM10.0001 11.6672C9.67045 11.6672 9.34822 11.5694 9.07413 11.3863C8.80005 11.2032 8.58643 10.9429 8.46028 10.6383C8.33414 10.3338 8.30113 9.99866 8.36544 9.67536C8.42975 9.35206 8.58848 9.05509 8.82157 8.822C9.05466 8.58891 9.35163 8.43017 9.67493 8.36587C9.99823 8.30156 10.3333 8.33456 10.6379 8.46071C10.9424 8.58686 11.2027 8.80048 11.3859 9.07456C11.569 9.34864 11.6668 9.67087 11.6668 10.0005C11.6668 10.4425 11.4912 10.8665 11.1786 11.179C10.866 11.4916 10.4421 11.6672 10.0001 11.6672Z" fill="#726F86"/>
<path d="M17.7452 11.5833L17.3752 11.37C17.5417 10.4637 17.5417 9.53463 17.3752 8.62833L17.7452 8.41499C18.0297 8.25084 18.2791 8.03225 18.4792 7.77171C18.6792 7.51117 18.826 7.21377 18.9111 6.89651C18.9962 6.57924 19.018 6.24831 18.9753 5.92262C18.9325 5.59693 18.826 5.28286 18.6618 4.99833C18.4977 4.7138 18.2791 4.46438 18.0185 4.26433C17.758 4.06428 17.4606 3.9175 17.1433 3.83238C16.8261 3.74726 16.4951 3.72546 16.1695 3.76823C15.8438 3.81101 15.5297 3.91751 15.2452 4.08166L14.8743 4.29583C14.1739 3.69743 13.369 3.23353 12.5002 2.92749V2.49999C12.5002 1.83695 12.2368 1.20107 11.7679 0.732226C11.2991 0.263385 10.6632 -6.67572e-06 10.0002 -6.67572e-06C9.33712 -6.67572e-06 8.70123 0.263385 8.23239 0.732226C7.76355 1.20107 7.50016 1.83695 7.50016 2.49999V2.92749C6.63131 3.23463 5.8267 3.69966 5.12682 4.29916L4.75432 4.08333C4.17969 3.75181 3.49689 3.66214 2.85614 3.83404C2.21539 4.00595 1.66918 4.42536 1.33766 4.99999C1.00614 5.57463 0.916468 6.25743 1.08838 6.89817C1.26028 7.53892 1.67969 8.08514 2.25432 8.41666L2.62432 8.62999C2.45775 9.53629 2.45775 10.4654 2.62432 11.3717L2.25432 11.585C1.67969 11.9165 1.26028 12.4627 1.08838 13.1035C0.916468 13.7442 1.00614 14.427 1.33766 15.0017C1.66918 15.5763 2.21539 15.9957 2.85614 16.1676C3.49689 16.3395 4.17969 16.2498 4.75432 15.9183L5.12516 15.7042C5.8258 16.3026 6.63098 16.7665 7.50016 17.0725V17.5C7.50016 18.163 7.76355 18.7989 8.23239 19.2678C8.70123 19.7366 9.33712 20 10.0002 20C10.6632 20 11.2991 19.7366 11.7679 19.2678C12.2368 18.7989 12.5002 18.163 12.5002 17.5V17.0725C13.369 16.7654 14.1736 16.3003 14.8735 15.7008L15.246 15.9158C15.8206 16.2473 16.5034 16.337 17.1442 16.1651C17.7849 15.9932 18.3311 15.5738 18.6627 14.9992C18.9942 14.4245 19.0838 13.7417 18.9119 13.101C18.74 12.4602 18.3206 11.914 17.746 11.5825L17.7452 11.5833ZM15.6218 8.43666C15.904 9.45921 15.904 10.5391 15.6218 11.5617C15.5726 11.7396 15.5838 11.9289 15.6538 12.0998C15.7238 12.2707 15.8485 12.4135 16.0085 12.5058L16.9118 13.0275C17.1033 13.138 17.2431 13.3201 17.3004 13.5336C17.3577 13.7472 17.3277 13.9747 17.2172 14.1662C17.1067 14.3578 16.9247 14.4975 16.7111 14.5548C16.4976 14.6121 16.27 14.5822 16.0785 14.4717L15.1735 13.9483C15.0134 13.8556 14.827 13.8188 14.6437 13.8437C14.4604 13.8686 14.2906 13.9538 14.161 14.0858C13.4193 14.843 12.4848 15.3833 11.4585 15.6483C11.2794 15.6944 11.1206 15.7987 11.0073 15.9449C10.894 16.0911 10.8326 16.2709 10.8327 16.4558V17.5C10.8327 17.721 10.7449 17.933 10.5886 18.0892C10.4323 18.2455 10.2203 18.3333 9.99932 18.3333C9.77831 18.3333 9.56635 18.2455 9.41007 18.0892C9.25379 17.933 9.16599 17.721 9.16599 17.5V16.4567C9.16608 16.2717 9.10464 16.092 8.99133 15.9458C8.87802 15.7996 8.7193 15.6952 8.54016 15.6492C7.51378 15.3831 6.5796 14.8416 5.83849 14.0833C5.70893 13.9513 5.53911 13.8661 5.35579 13.8412C5.17247 13.8163 4.98608 13.8531 4.82599 13.9458L3.92266 14.4683C3.82785 14.5239 3.72298 14.5602 3.6141 14.5751C3.50521 14.59 3.39445 14.5832 3.2882 14.5551C3.18195 14.527 3.08231 14.4782 2.99501 14.4114C2.90771 14.3446 2.83447 14.2613 2.77952 14.1661C2.72457 14.0709 2.68899 13.9658 2.67482 13.8568C2.66066 13.7479 2.66819 13.6371 2.69698 13.5311C2.72578 13.425 2.77527 13.3257 2.8426 13.2388C2.90994 13.152 2.99379 13.0793 3.08932 13.025L3.99266 12.5033C4.15262 12.411 4.27739 12.2682 4.34737 12.0973C4.41736 11.9264 4.4286 11.7371 4.37932 11.5592C4.09712 10.5366 4.09712 9.45671 4.37932 8.43416C4.42771 8.25656 4.41594 8.06794 4.34584 7.89774C4.27574 7.72753 4.15125 7.58533 3.99182 7.49333L3.08849 6.97166C2.89698 6.86115 2.75722 6.6791 2.69994 6.46554C2.64266 6.25198 2.67257 6.02442 2.78307 5.83291C2.89358 5.6414 3.07564 5.50164 3.2892 5.44436C3.50275 5.38708 3.73032 5.41699 3.92182 5.52749L4.82682 6.05083C4.98647 6.14375 5.17248 6.181 5.3556 6.15672C5.53872 6.13243 5.70858 6.04799 5.83849 5.91666C6.58023 5.15945 7.51468 4.61918 8.54099 4.35416C8.72069 4.30796 8.87982 4.20312 8.99319 4.05624C9.10655 3.90937 9.16766 3.72886 9.16683 3.54333V2.49999C9.16683 2.27898 9.25462 2.06702 9.4109 1.91074C9.56718 1.75446 9.77914 1.66666 10.0002 1.66666C10.2212 1.66666 10.4331 1.75446 10.5894 1.91074C10.7457 2.06702 10.8335 2.27898 10.8335 2.49999V3.54333C10.8334 3.72829 10.8948 3.90803 11.0082 4.05423C11.1215 4.20042 11.2802 4.30477 11.4593 4.35083C12.486 4.61679 13.4205 5.15823 14.1618 5.91666C14.2914 6.04872 14.4612 6.1339 14.6445 6.1588C14.8278 6.18369 15.0142 6.14688 15.1743 6.05416L16.0777 5.53166C16.1725 5.47608 16.2773 5.4398 16.3862 5.42491C16.4951 5.41002 16.6059 5.41682 16.7121 5.44491C16.8184 5.473 16.918 5.52183 17.0053 5.58859C17.0926 5.65534 17.1658 5.73871 17.2208 5.83389C17.2757 5.92906 17.3113 6.03417 17.3255 6.14315C17.3397 6.25213 17.3321 6.36284 17.3033 6.4689C17.2745 6.57496 17.225 6.67428 17.1577 6.76114C17.0904 6.84799 17.0065 6.92067 16.911 6.97499L16.0077 7.49666C15.8485 7.58891 15.7244 7.73122 15.6546 7.9014C15.5848 8.07159 15.5733 8.26008 15.6218 8.43749V8.43666Z" fill="#726F86"/>
</g>
<defs>
<clipPath id="clip0_3044_758">
<rect width="20" height="20" fill="white"/>
</clipPath>
</defs>
</svg>
