<svg width="27" height="27" viewBox="0 0 27 27" fill="none" xmlns="http://www.w3.org/2000/svg">
<rect width="27" height="27" rx="13.5" fill="#140F36"/>
<path d="M8.916 19.66C8.00933 19.66 7.23067 19.5053 6.58 19.196C5.94 18.8867 5.35867 18.4227 4.836 17.804L6.276 16.364C6.60667 16.8013 6.99067 17.1427 7.428 17.388C7.86533 17.6227 8.39867 17.74 9.028 17.74C9.59333 17.74 10.0413 17.628 10.372 17.404C10.7133 17.18 10.884 16.8707 10.884 16.476C10.884 16.1347 10.788 15.8573 10.596 15.644C10.404 15.4307 10.148 15.2493 9.828 15.1C9.51867 14.9507 9.172 14.8173 8.788 14.7C8.41467 14.572 8.036 14.428 7.652 14.268C7.27867 14.108 6.932 13.9107 6.612 13.676C6.30267 13.4307 6.052 13.1213 5.86 12.748C5.668 12.364 5.572 11.884 5.572 11.308C5.572 10.6253 5.73733 10.044 6.068 9.564C6.39867 9.084 6.852 8.716 7.428 8.46C8.004 8.204 8.65467 8.076 9.38 8.076C10.148 8.076 10.8413 8.22 11.46 8.508C12.0787 8.796 12.5853 9.16933 12.98 9.628L11.54 11.068C11.2093 10.7053 10.868 10.4387 10.516 10.268C10.1747 10.0973 9.78533 10.012 9.348 10.012C8.84667 10.012 8.452 10.108 8.164 10.3C7.876 10.492 7.732 10.7693 7.732 11.132C7.732 11.4413 7.828 11.692 8.02 11.884C8.212 12.076 8.46267 12.2413 8.772 12.38C9.092 12.5187 9.43867 12.652 9.812 12.78C10.196 12.908 10.5747 13.052 10.948 13.212C11.332 13.372 11.6787 13.58 11.988 13.836C12.308 14.092 12.564 14.4227 12.756 14.828C12.948 15.2227 13.044 15.7133 13.044 16.3C13.044 17.3453 12.676 18.1667 11.94 18.764C11.204 19.3613 10.196 19.66 8.916 19.66ZM14.7614 19.5V8.252H16.9374V19.5H14.7614ZM16.3614 19.5V17.564H22.0894V19.5H16.3614Z" fill="white"/>
</svg>
