<svg width="51" height="48" viewBox="0 0 51 48" fill="none" xmlns="http://www.w3.org/2000/svg">
<path d="M12.5657 2.91059C11.1311 2.48454 10.0011 1.40372 9.53927 0.022425L9.52944 0L9.51962 0.022425C9.05779 1.40372 7.92779 2.48454 6.49317 2.91059L6.11487 3.02271L6.49317 3.13483C7.92779 3.56088 9.05779 4.6417 9.51962 6.02299L9.52944 6.04542L9.53927 6.02299C10.0011 4.6417 11.1311 3.56088 12.5657 3.13483L12.944 3.02271L12.5657 2.91059Z" fill="#FFC200"/>
<path d="M4.3153 9.97863C3.40638 9.70955 2.69399 9.02787 2.40412 8.15335L2.3992 8.13989L2.39429 8.15335C2.10442 9.02787 1.39203 9.70955 0.48311 9.97863L0.242371 10.0504L0.48311 10.1221C1.39203 10.3912 2.10442 11.0729 2.39429 11.9474L2.3992 11.9609L2.40412 11.9474C2.69399 11.0729 3.40638 10.3912 4.3153 10.1221L4.55604 10.0504L4.3153 9.97863Z" fill="#FFC200"/>
<path d="M50.7593 43.1662C49.8504 42.8971 49.138 42.2154 48.8481 41.3409L48.8432 41.3274L48.8383 41.3409C48.5484 42.2154 47.836 42.8971 46.9271 43.1662L46.6863 43.2379L46.9271 43.3097C47.836 43.5788 48.5484 44.2605 48.8383 45.135L48.8432 45.1484L48.8481 45.135C49.138 44.2605 49.8504 43.5788 50.7593 43.3097L51 43.2379L50.7593 43.1662Z" fill="#FFC200"/>
<path d="M3.2095 30.8065L2.47284 46.0393L38.641 47.4968L39.3776 32.2639L3.2095 30.8065Z" fill="#96EC9D"/>
<path d="M4.26272 31.8508L3.62402 45.0808L37.5978 46.4531L38.2365 33.2232L4.26272 31.8508ZM5.3092 32.8958L37.0918 34.1784L36.5464 45.4082L4.76385 44.1255L5.3092 32.8958Z" fill="#2F6029"/>
<path d="M4.26272 31.8508L4.09076 35.4117L3.79598 41.5199L3.62402 45.0853L7.52991 45.2422L33.692 46.2961L37.6028 46.4531L37.7747 42.8922L38.0695 36.784L38.2414 33.2232L34.3307 33.0662L8.17352 32.0123L4.26272 31.8508ZM5.17655 35.6449C6.84208 35.7122 8.24721 34.5372 8.32582 33.0169L34.0752 34.0573C34.0015 35.5776 35.2936 36.8648 36.9591 36.932H36.9641L36.6889 42.659H36.684C35.0185 42.5917 33.6084 43.7667 33.5347 45.2871L7.78538 44.2466C7.85908 42.7263 6.56695 41.4392 4.90142 41.3719L5.17655 35.6449Z" fill="#007B28"/>
<path d="M6.10051 20.5845L6.10352e-05 34.779L33.7027 46.8481L39.8031 32.6536L6.10051 20.5845Z" fill="#96EC9D"/>
<path d="M6.71931 21.8763L1.42303 34.2049L33.0828 45.5423L38.3791 33.2137L6.71931 21.8763ZM7.34327 23.1769L36.9592 33.7833L32.4637 44.2507L2.84782 33.6443L7.34327 23.1769Z" fill="#2F6029"/>
<path d="M6.71931 21.8763L5.29452 25.195L2.84782 30.8862L1.42303 34.2094L5.06361 35.5099L29.4422 44.2372L33.0877 45.5423L34.5125 42.2236L36.9592 36.5324L38.384 33.2137L34.7434 31.9087L10.3599 23.1814L6.71931 21.8763ZM6.24274 25.7377C7.79527 26.2938 9.54432 25.5987 10.1535 24.1815L34.1489 32.7742C33.5397 34.1914 34.3061 35.788 35.8587 36.3441H35.8636L33.5692 41.6809H33.5643C32.0117 41.1248 30.2627 41.8244 29.6535 43.2371L5.65809 34.6444C6.26731 33.2272 5.50087 31.6306 3.94835 31.0745L6.24274 25.7377Z" fill="#007B28"/>
<path d="M13.8271 11.9619L2.17242 22.8857L28.1092 45.9432L39.7639 35.0195L13.8271 11.9619Z" fill="#96EC9D"/>
<path d="M13.8477 13.3777L3.72675 22.8674L28.0906 44.5242L38.2164 35.0345L13.8477 13.3777ZM13.8722 14.7949L36.6639 35.0569L28.071 43.1115L5.27927 22.845L13.8722 14.7949Z" fill="#2F6029"/>
<path d="M20.9668 33.1597C23.5147 33.1597 25.5802 31.2743 25.5802 28.9486C25.5802 26.6228 23.5147 24.7374 20.9668 24.7374C18.4189 24.7374 16.3535 26.6228 16.3535 28.9486C16.3535 31.2743 18.4189 33.1597 20.9668 33.1597Z" fill="#007B28"/>
<path d="M13.8477 13.3777L11.1258 15.9296L6.45349 20.3111L3.72675 22.8674L6.52719 25.3565L25.2853 42.0352L28.0906 44.5287L30.8124 41.9769L35.4848 37.5953L38.2115 35.039L35.4062 32.5455L16.653 15.8668L13.8477 13.3777ZM11.7694 16.7637C12.9633 17.8221 14.8696 17.8042 16.034 16.7144L34.4972 33.1285C33.3328 34.2183 33.3574 35.9628 34.5513 37.0257C34.5513 37.0257 34.5513 37.0257 34.5562 37.0302L30.1737 41.1382C30.1737 41.1382 30.1737 41.1382 30.1688 41.1337C28.975 40.0709 27.0638 40.0933 25.9043 41.1831L7.44102 24.769C8.60542 23.6792 8.58085 21.9346 7.38698 20.8717L11.7694 16.7637Z" fill="#007B28"/>
<g opacity="0.59">
<path d="M3.45218 36.013L3.36374 37.8294L2.88226 37.6589L2.9707 35.8381L3.45218 36.013Z" fill="#1D1D1D" fill-opacity="0.26"/>
<path d="M26.43 46.0895L3.36316 37.8286L3.45159 36.0123L22.9466 42.9905L26.43 46.0895Z" fill="#1D1D1D" fill-opacity="0.26"/>
<path d="M30.7784 45.7979L33.7017 46.8429L36.4235 40.506L38.5165 38.5461L34.7384 47.3407L29.3635 47.1254L30.7784 45.7979Z" fill="#366D2E"/>
<path d="M39.2237 35.5235L39.1942 36.1469L38.8651 35.8599L39.2237 35.5235Z" fill="#366D2E"/>
<path d="M5.20067 25.5761L4.68971 26.76L3.78571 25.9573L4.29666 24.7733L5.20067 25.5761Z" fill="#1D1D1D" fill-opacity="0.26"/>
<path d="M9.52918 31.0609L4.68982 26.76L5.20078 25.576L11.46 31.1371L9.52918 31.0609Z" fill="#1D1D1D" fill-opacity="0.26"/>
<path d="M13.7837 33.2096L11.8529 33.1289L9.52899 31.0614L11.4598 31.1376L13.7837 33.2096Z" fill="#1D1D1D" fill-opacity="0.26"/>
<path d="M29.3446 47.1244L29.339 47.1303L29.319 47.1214L29.3446 47.1244Z" fill="#366D2E"/>
<path d="M26.0373 44.098L28.1106 45.9412L28.9605 45.1429L30.7784 45.7977L29.3634 47.1252L29.3192 47.1207L26.4303 46.0892L22.947 42.9902L26.0373 44.098Z" fill="#366D2E"/>
<path d="M36.4233 40.5057L38.1232 36.5546L38.8651 35.8595L39.1942 36.1465L39.1451 37.0749L38.5162 38.5459L36.4233 40.5057Z" fill="#366D2E"/>
<path d="M22.9468 42.9906L11.8531 33.1287L13.7839 33.2094L26.0371 44.0984L22.9468 42.9906Z" fill="#1D1D1D" fill-opacity="0.26"/>
<path d="M38.1234 36.5548L36.4234 40.5059L30.7783 45.7978L28.9605 45.1431L38.1234 36.5548Z" fill="#366D2E"/>
</g>
<path fill-rule="evenodd" clip-rule="evenodd" d="M19.4489 7.81237C19.4489 6.41762 20.6771 5.2785 22.2051 5.25608C25.7523 5.20226 28.9655 5.17087 31.8494 5.17087C34.7334 5.17087 37.9465 5.19778 41.4938 5.25608C43.0217 5.2785 44.25 6.41762 44.25 7.81237L44.2353 45.3451C44.2353 46.7353 43.0168 47.8744 41.4938 47.9058C38.4772 47.9686 35.2591 48 31.8396 48C28.4201 48 25.2021 47.9686 22.1855 47.9058C20.6624 47.8744 19.444 46.7353 19.444 45.3451V25.4687V7.81237H19.4489Z" fill="#0B2139"/>
<path fill-rule="evenodd" clip-rule="evenodd" d="M20.9424 47.1931C21.3404 47.3904 21.7138 47.4981 22.7946 47.4981H40.8354C41.9163 47.4981 42.2897 47.3904 42.6876 47.1931C43.0414 47.0137 43.3362 46.7491 43.5278 46.4262C43.7439 46.063 43.8618 45.7221 43.8618 44.7355V8.35538C43.8618 7.36426 43.7439 7.02342 43.5278 6.66464C43.3312 6.34174 43.0414 6.07265 42.6876 5.89775C42.2897 5.70042 41.9163 5.59279 40.8354 5.59279H22.7946C21.7138 5.59279 21.3404 5.70042 20.9424 5.89775C20.5887 6.07714 20.2939 6.34174 20.1023 6.66464C19.8861 7.0279 19.7682 7.36874 19.7682 8.35538V44.7355C19.7682 45.7266 19.8861 46.0675 20.1023 46.4262C20.2939 46.7491 20.5887 47.0182 20.9424 47.1931Z" fill="#0B2139"/>
<path d="M43.1298 6.89763C42.9775 6.642 42.7466 6.43122 42.4666 6.29219C42.1472 6.13074 41.8524 6.04553 40.9877 6.04553H37.7353L37.637 6.85278C37.5781 7.34162 37.1261 7.71385 36.5856 7.71385H26.9708C26.4058 7.71385 25.939 7.31023 25.9145 6.79448L25.8751 6.05002H22.6227C21.758 6.05002 21.4632 6.13523 21.1439 6.29668C20.8638 6.4357 20.6378 6.64649 20.4806 6.90212C20.3037 7.19362 20.2104 7.46271 20.2104 8.25202V43.8832C20.2104 44.6725 20.3037 44.9461 20.4806 45.2331C20.6329 45.4887 20.8638 45.6995 21.1439 45.8385C21.4632 46 21.758 46.0852 22.6227 46.0852H40.9877C41.8524 46.0852 42.1472 46 42.4666 45.8385C42.7466 45.6995 42.9775 45.4887 43.1298 45.2331C43.3067 44.9416 43.4 44.6725 43.4 43.8832V8.24753C43.4 7.45822 43.3067 7.18914 43.1298 6.89763Z" fill="#D84E55"/>
<path fill-rule="evenodd" clip-rule="evenodd" d="M39.8522 14.338C39.4002 13.589 38.8303 13.163 38.2064 13.1002H38.2015C32.4139 12.6024 25.005 13.7774 23.4868 15.0555C22.8285 15.6116 22.7106 16.9167 23.1233 19.0514C23.4132 20.5404 23.8553 21.8723 23.875 21.9306L23.9732 22.2266L25.8156 22.0383C25.963 22.9531 26.8277 23.6572 27.8693 23.6572C29.014 23.6572 29.9475 22.8051 29.9475 21.7602C29.9475 21.7154 29.9426 21.6705 29.9377 21.6257L34.3054 21.1682C34.3054 21.1817 34.3054 21.1951 34.3054 21.2131C34.3054 22.258 35.2389 23.1101 36.3836 23.1101C37.5284 23.1101 38.4619 22.258 38.4619 21.2131C38.4619 21.0561 38.4373 20.9036 38.398 20.7556L40.26 20.5583L40.3583 20.3744C41.1247 18.9617 40.8791 16.0332 39.8522 14.338ZM27.8742 22.9083C27.1766 22.9083 26.6116 22.3926 26.6116 21.7602C26.6116 21.1279 27.1766 20.6121 27.8742 20.6121C28.5719 20.6121 29.1369 21.1279 29.1369 21.7602C29.132 22.3926 28.567 22.9083 27.8742 22.9083ZM36.3935 22.3612C35.6958 22.3612 35.1308 21.8454 35.1308 21.2131C35.1308 20.5807 35.6958 20.065 36.3935 20.065C37.0911 20.065 37.6561 20.5807 37.6561 21.2131C37.6512 21.8454 37.0862 22.3612 36.3935 22.3612ZM39.7196 19.8587L38.0246 20.0336C37.8919 19.8721 37.7396 19.7466 37.5628 19.6479C37.2287 19.4371 36.8258 19.316 36.3885 19.316C35.7449 19.316 35.1652 19.5851 34.7869 20.0067C34.669 20.1233 34.556 20.2578 34.4577 20.4013L29.7166 20.8902C29.6724 20.8139 29.6233 20.7377 29.5643 20.6659C29.5594 20.657 29.5496 20.648 29.5447 20.639C29.1663 20.1681 28.5571 19.8632 27.8693 19.8632C27.3387 19.8632 26.8572 20.047 26.4887 20.343C26.1792 20.5807 25.9483 20.8991 25.8107 21.2848L24.553 21.4149C23.875 19.2712 23.3002 16.2216 24.0322 15.6027C25.0492 14.7461 30.2374 13.728 35.3175 13.728C36.2608 13.728 37.2041 13.7639 38.113 13.8402C38.4569 13.876 38.8156 14.1765 39.13 14.6968C39.98 16.0915 40.2453 18.5985 39.7196 19.8587Z" fill="white"/>
<path fill-rule="evenodd" clip-rule="evenodd" d="M25.9145 17.042C25.8702 17.0106 25.8064 16.9792 25.7228 16.9568C25.6393 16.9299 25.546 16.9209 25.433 16.9209C25.3052 16.9209 25.1971 16.9389 25.1038 16.9747C25.0154 17.0106 24.9417 17.0555 24.8827 17.1093V18.6431H24.1752V16.3648L24.8827 16.32V16.5442L25.1087 16.4186C25.1775 16.3783 25.261 16.3469 25.3495 16.32C25.4428 16.2931 25.5263 16.2796 25.6 16.2796C25.6786 16.2796 25.7474 16.2841 25.7965 16.2931C25.8457 16.302 25.885 16.311 25.9095 16.3244V17.042H25.9145Z" fill="white"/>
<path fill-rule="evenodd" clip-rule="evenodd" d="M27.9239 17.2929C27.8895 17.1225 27.8158 16.9924 27.7126 16.9027C27.6045 16.813 27.4719 16.7727 27.3147 16.7727C27.1329 16.7727 26.9904 16.822 26.897 16.9162C26.8037 17.0104 26.7447 17.1359 26.7251 17.2929H27.9239ZM28.5822 17.6023H26.7349C26.7742 17.7862 26.8528 17.9208 26.9757 18.0015C27.0985 18.0822 27.241 18.1226 27.4129 18.1226C27.5505 18.1226 27.7028 18.1046 27.8698 18.0643C28.0369 18.0284 28.1695 17.9791 28.2678 17.9163V18.4948C28.1744 18.5531 28.0369 18.6024 27.8551 18.6338C27.6733 18.6697 27.5259 18.6832 27.4129 18.6832C26.9707 18.6832 26.6268 18.5755 26.3812 18.3558C26.1355 18.136 26.0127 17.84 26.0127 17.4723C26.0127 17.1 26.1404 16.7996 26.391 16.5709C26.6416 16.3421 26.9609 16.23 27.3392 16.23C27.7175 16.23 28.0221 16.3511 28.2432 16.5978C28.4692 16.8399 28.5822 17.1763 28.5822 17.6023Z" fill="white"/>
<path fill-rule="evenodd" clip-rule="evenodd" d="M30.5966 17.9388V16.9387C30.5573 16.8939 30.4934 16.8535 30.405 16.8221C30.3165 16.7907 30.2183 16.7728 30.1151 16.7728C29.9235 16.7728 29.7761 16.8266 29.6828 16.9298C29.5894 17.0329 29.5403 17.1988 29.5403 17.4231C29.5403 17.6518 29.5894 17.8222 29.6926 17.9388C29.7908 18.0509 29.9284 18.1092 30.1004 18.1092C30.2084 18.1092 30.3067 18.0913 30.3902 18.0599C30.4738 18.024 30.5425 17.9837 30.5966 17.9388ZM31.2942 18.6384H30.7587L30.6064 18.4277L30.233 18.616C30.2035 18.634 30.1544 18.6429 30.1004 18.6519C30.0414 18.6609 29.9923 18.6653 29.9481 18.6653C29.5845 18.6653 29.3044 18.5532 29.1128 18.329C28.9212 18.1048 28.8279 17.8222 28.8279 17.4859C28.8279 17.1181 28.9409 16.8266 29.1718 16.6113C29.4027 16.3961 29.7073 16.2884 30.0807 16.2884C30.1888 16.2884 30.2821 16.2974 30.3657 16.3109C30.4492 16.3288 30.5278 16.3557 30.6015 16.3916V15.3915H31.2992V18.6384H31.2942Z" fill="white"/>
<path fill-rule="evenodd" clip-rule="evenodd" d="M33.682 17.6114C33.682 17.4455 33.6329 17.3244 33.5297 17.2437C33.4315 17.163 33.2988 17.1226 33.1318 17.1226H32.6454V18.0958H33.2005C33.3627 18.0958 33.4855 18.0509 33.5641 17.9702C33.6427 17.885 33.682 17.7639 33.682 17.6114ZM33.5543 16.3647C33.5543 16.2346 33.515 16.1315 33.4315 16.0508C33.3479 15.97 33.23 15.9297 33.0777 15.9297H32.6503V16.7997H33.1219C33.2644 16.7997 33.3676 16.7593 33.4462 16.6831C33.515 16.6069 33.5543 16.4992 33.5543 16.3647ZM34.4681 17.7011C34.4681 17.9882 34.3699 18.2169 34.1684 18.3873C33.967 18.5577 33.7115 18.6429 33.402 18.6429H31.874V15.3915H33.3676C33.6476 15.3915 33.8786 15.4632 34.0554 15.6112C34.2323 15.7592 34.3207 15.9566 34.3207 16.2032C34.3207 16.405 34.2667 16.5665 34.1635 16.6876C34.0603 16.8087 33.8982 16.8849 33.6869 16.9118C33.8982 16.9432 34.0849 17.0284 34.2372 17.163C34.3944 17.293 34.4681 17.4724 34.4681 17.7011Z" fill="white"/>
<path fill-rule="evenodd" clip-rule="evenodd" d="M37.2487 18.6383H36.5412V18.3826L36.2464 18.5351C36.1629 18.5755 36.0794 18.6114 35.986 18.6338C35.8976 18.6562 35.7993 18.6697 35.6962 18.6697C35.4505 18.6697 35.254 18.5979 35.1164 18.4589C34.9739 18.3199 34.9052 18.136 34.9052 17.9073V16.36H35.6126V17.7593C35.6126 17.8445 35.647 17.9162 35.7109 17.979C35.7748 18.0418 35.8779 18.0732 36.0106 18.0732C36.1383 18.0732 36.2464 18.0508 36.3349 18.0014C36.4233 17.9521 36.4921 17.9073 36.5412 17.8669V16.36H37.2487V18.6383Z" fill="white"/>
<path fill-rule="evenodd" clip-rule="evenodd" d="M39.7001 17.8588C39.7001 18.1055 39.6019 18.3073 39.4103 18.4597C39.2138 18.6122 38.973 18.6885 38.6881 18.6885C38.5554 18.6885 38.3933 18.675 38.2066 18.6526C38.0199 18.6257 37.8528 18.5808 37.7054 18.5091V17.9305C37.8184 17.9889 37.9511 18.0427 38.0936 18.083C38.241 18.1279 38.408 18.1503 38.5996 18.1503C38.7372 18.1503 38.8502 18.1324 38.9337 18.0965C39.0172 18.0606 39.0615 17.9978 39.0615 17.9036C39.0615 17.8409 39.0271 17.7915 38.9534 17.7512C38.8846 17.7108 38.7568 17.6839 38.58 17.6704C38.2655 17.648 38.0444 17.5763 37.9167 17.4597C37.789 17.343 37.7251 17.1906 37.7251 16.9932C37.7251 16.7735 37.8234 16.5896 38.015 16.4506C38.2115 16.3071 38.4473 16.2353 38.7323 16.2353C38.8551 16.2353 38.9878 16.2443 39.1302 16.2667C39.2727 16.2847 39.3906 16.3116 39.4889 16.3385V16.926C39.3661 16.8766 39.2432 16.8363 39.1204 16.8138C38.9976 16.7914 38.8649 16.778 38.7274 16.778C38.6144 16.778 38.5259 16.7959 38.4621 16.8318C38.3982 16.8677 38.3687 16.908 38.3687 16.9529C38.3687 17.0381 38.4129 17.0964 38.5063 17.1233C38.5947 17.1502 38.693 17.1681 38.7912 17.1726C39.0958 17.1906 39.3218 17.2623 39.4741 17.3789C39.6215 17.4955 39.7001 17.657 39.7001 17.8588Z" fill="white"/>
<path d="M35.664 34.7287C35.8579 34.5429 35.8493 34.2446 35.6469 34.0686C35.4511 33.8984 35.1448 33.9047 34.9574 34.0843L32.2434 36.6851V30.3702C32.2434 30.105 32.0115 29.9089 31.75 29.9089C31.4884 29.9089 31.2565 30.105 31.2565 30.3702V36.6853L28.5423 34.0843C28.355 33.9047 28.0487 33.8984 27.8529 34.0686C27.6505 34.2446 27.6419 34.5429 27.8357 34.7287L31.3076 38.0559C31.4068 38.151 31.5319 38.2063 31.66 38.2237C31.6892 38.2288 31.7193 38.2314 31.75 38.2314C31.7808 38.2314 31.8111 38.2287 31.8406 38.2236C31.9684 38.206 32.0932 38.1508 32.1921 38.0559L35.664 34.7287Z" fill="white" stroke="white" stroke-width="0.25"/>
</svg>
